<svg id="Layer_1" data-name="Layer 1" xmlns="http://www.w3.org/2000/svg" viewBox="0 0 650 901.89"><defs><style>.cls-1{fill:#007bc4;}.cls-2{fill:#1cbdad;}</style></defs><path class="cls-1" d="M212.34,840.47V752.08h9.29a30.6,30.6,0,0,1,1.55,61.16l23.74,27.23H241l-24.26-27.62v27.62Zm4.39-31.62h4.9a26.19,26.19,0,1,0,0-52.38h-4.9Z" transform="translate(-175 -45.12)"/><path class="cls-1" d="M262.53,813.24a29.16,29.16,0,1,1,29.16,29A29.21,29.21,0,0,1,262.53,813.24Zm53.94-.13a24.78,24.78,0,1,0-24.78,24.78A24.84,24.84,0,0,0,316.47,813.11Z" transform="translate(-175 -45.12)"/><path class="cls-1" d="M337.62,824.21V785.89H342v38.32c0,9,5.68,13.68,12.26,13.68a15.52,15.52,0,0,0,13.93-8.39V785.89h4.39v54.58H368.2v-4.39c-2.84,3.61-7.61,6.19-13.93,6.19C345,842.27,337.62,835.43,337.62,824.21Z" transform="translate(-175 -45.12)"/><path class="cls-1" d="M393.23,840.47V785.89h4.39v4.51c2.71-3.61,7.48-6.32,13.93-6.32,9.29,0,16.65,6.84,16.65,18.06v38.33h-4.39V802.14c0-9-5.68-13.67-12.26-13.67A15.25,15.25,0,0,0,397.62,797v43.49Z" transform="translate(-175 -45.12)"/><path class="cls-1" d="M445,813.24A29,29,0,0,1,491.55,790V752.08h4.39v88.39h-4.39v-4A29.14,29.14,0,0,1,445,813.24Zm46.58,17.42v-35a26,26,0,0,0-17.42-7.22,24.71,24.71,0,1,0,0,49.42A25.38,25.38,0,0,0,491.55,830.66Z" transform="translate(-175 -45.12)"/><path class="cls-2" d="M523.54,840.47V769.63H508.83V752.08h47.1v17.55H541.09v70.84Z" transform="translate(-175 -45.12)"/><path class="cls-2" d="M552.06,810.27c0-17.67,14.32-32,29.16-32,6.84,0,11.61,2.07,15.1,5.68v-3.87h16.51v60.39H596.32v-3.75c-3.49,3.49-8.26,5.55-15.1,5.55C566.38,842.27,552.06,828,552.06,810.27Zm44.26,9.42V800.85a15.23,15.23,0,0,0-12.26-6.06,15.49,15.49,0,0,0,0,31A15.24,15.24,0,0,0,596.32,819.69Z" transform="translate(-175 -45.12)"/><path class="cls-2" d="M642.25,836.72v3.75H625.73V752.08h16.52V784c3.48-3.61,8.25-5.68,15.09-5.68,14.84,0,29.16,14.33,29.16,32s-14.32,32-29.16,32C650.5,842.27,645.73,840.21,642.25,836.72ZM670,810.27a15.62,15.62,0,0,0-15.49-15.48,15.21,15.21,0,0,0-12.25,6.06v18.84a15.22,15.22,0,0,0,12.25,6.07A15.62,15.62,0,0,0,670,810.27Z" transform="translate(-175 -45.12)"/><path class="cls-2" d="M696.82,840.47V752.08h16.52v88.39Z" transform="translate(-175 -45.12)"/><path class="cls-2" d="M723.66,810.27a32,32,0,0,1,64,0,34.67,34.67,0,0,1-.52,6.33H741.46a15.58,15.58,0,0,0,14.2,9.16,14.89,14.89,0,0,0,10.84-4.52L778.24,833a32,32,0,0,1-54.58-22.71ZM769.72,804a15.48,15.48,0,0,0-28.26,0Z" transform="translate(-175 -45.12)"/><path class="cls-1" d="M328.94,931.5V876.64l17,23.07,17-23.07V931.5h-2.65V884.67l-14.34,19.48-14.34-19.48V931.5Z" transform="translate(-175 -45.12)"/><path class="cls-1" d="M376.94,921.68V898.54h2.65v23.14c0,5.46,3.43,8.26,7.41,8.26a9.36,9.36,0,0,0,8.41-5.06V898.54h2.65v33h-2.65v-2.65a10.35,10.35,0,0,1-8.41,3.74C381.39,932.59,376.94,928.46,376.94,921.68Z" transform="translate(-175 -45.12)"/><path class="cls-1" d="M410.53,931.5V878.12h2.65V931.5Z" transform="translate(-175 -45.12)"/><path class="cls-1" d="M427.75,931.5V901.19h-5.61v-2.65h5.61V886.23l2.65-1.56v13.87h6.39v2.65H430.4V931.5Z" transform="translate(-175 -45.12)"/><path class="cls-1" d="M445,891.21v-6.7h2.65v6.7Zm0,40.29v-33h2.65v33Z" transform="translate(-175 -45.12)"/><path class="cls-1" d="M455.41,916.23v-2.42h20.65v2.42Z" transform="translate(-175 -45.12)"/><path class="cls-1" d="M483.46,932v-2.8a7.32,7.32,0,0,0,2,.31c7,0,11.53-5.15,11.53-12,0-5.38-2.8-8.81-5.68-12.39-3-3.67-6.16-7.49-6.16-13.8,0-8.18,5.77-13.87,13.64-13.87h.39v2.73h-.39a10.64,10.64,0,0,0-10.91,11.06c0,5.38,2.8,8.89,5.69,12.47,3,3.74,6.15,7.72,6.15,14.11,0,8.49-5.77,14.49-14.26,14.49A6,6,0,0,1,483.46,932Z" transform="translate(-175 -45.12)"/><path class="cls-1" d="M511.05,891.21v-6.7h2.65v6.7Zm0,40.29v-33h2.65v33Z" transform="translate(-175 -45.12)"/><path class="cls-1" d="M537.62,946.85v-2.64a13.72,13.72,0,0,0,2.18.15c6.94,0,12.16-4.91,12.16-12.62v-2.65a17.58,17.58,0,1,1-10.52-31.64A17.83,17.83,0,0,1,552,901v-2.49h2.65v33.2c0,9.89-6.7,15.27-14.81,15.27A11.16,11.16,0,0,1,537.62,946.85ZM552,925.58V904.46a15.71,15.71,0,0,0-10.52-4.36,14.92,14.92,0,1,0,0,29.84A15.34,15.34,0,0,0,552,925.58Z" transform="translate(-175 -45.12)"/><path class="cls-1" d="M586.09,915.06a17.64,17.64,0,0,1,17.61-17.61A17.83,17.83,0,0,1,614.22,901V878.12h2.65V931.5h-2.65v-2.41a17.6,17.6,0,0,1-28.13-14Zm28.13,10.52V904.46a15.69,15.69,0,0,0-10.52-4.36,14.92,14.92,0,1,0,0,29.84A15.32,15.32,0,0,0,614.22,925.58Z" transform="translate(-175 -45.12)"/><path class="cls-1" d="M624.27,931.5l21.12-55,21.12,55h-3l-3.74-9.89H631.05l-3.74,9.89Zm7.56-12.08H659l-13.56-35.76Z" transform="translate(-175 -45.12)"/><path class="cls-1" d="M673.91,945.92V898.54h2.65V901a17.14,17.14,0,0,1,10.52-3.58,17.57,17.57,0,1,1,0,35.14A17.14,17.14,0,0,1,676.56,929v16.91ZM702,915a15,15,0,0,0-15-14.88,15.32,15.32,0,0,0-10.52,4.36v21.12a15.69,15.69,0,0,0,10.52,4.36A15.06,15.06,0,0,0,702,915Z" transform="translate(-175 -45.12)"/><path class="cls-1" d="M714.82,945.92V898.54h2.65V901A17.16,17.16,0,0,1,728,897.45a17.57,17.57,0,1,1,0,35.14A17.16,17.16,0,0,1,717.47,929v16.91ZM743,915a15,15,0,0,0-15-14.88,15.32,15.32,0,0,0-10.52,4.36v21.12A15.69,15.69,0,0,0,728,929.94,15.06,15.06,0,0,0,743,915Z" transform="translate(-175 -45.12)"/><path id="A_-_Lt_Blu" data-name="A - Lt Blu" class="cls-1" d="M289.49,913.74l6.91-5.38h-9.49L272.69,876.3H265l-14.16,32.06h-9.19l6.6,5.38-7.79,17.56h9.05L256.7,914H281l7.2,17.35h9Zm-20.72-29.3,5.83,14.18H263.05Zm-10.33,24.13,2.1-5h16.57l2,5Z" transform="translate(-175 -45.12)"/><ellipse class="cls-1" cx="326.03" cy="324.59" rx="218.45" ry="218.22"/><polygon class="cls-2" points="187.14 185.84 288.45 233.95 326.03 128.37 363.62 233.95 464.92 185.84 416.77 287.04 522.46 324.59 416.77 362.13 464.92 463.33 363.62 415.23 326.03 520.8 288.45 415.23 187.14 463.33 235.3 362.13 129.61 324.59 235.3 287.04 187.14 185.84"/><polygon class="cls-2" points="260.9 170.4 325.48 240.91 389.12 169.55 384.87 265.03 480.38 259.52 409.8 324.03 481.23 387.61 385.65 383.36 391.17 478.78 326.59 408.26 262.95 479.63 267.19 384.15 171.68 389.65 242.27 325.14 170.83 261.56 266.41 265.81 260.9 170.4"/><path class="cls-2" d="M665.07,199.48a43.72,43.72,0,1,0,3.57-61.69l0,0A43.67,43.67,0,0,0,665.07,199.48Z" transform="translate(-175 -45.12)"/><ellipse class="cls-2" cx="542.14" cy="195.23" rx="14.74" ry="14.73"/><ellipse class="cls-2" cx="452.75" cy="105.79" rx="14.74" ry="14.73"/><ellipse class="cls-2" cx="542.14" cy="195.23" rx="14.74" ry="14.73"/><ellipse class="cls-2" cx="522.73" cy="125.32" rx="43.68" ry="43.63"/><ellipse class="cls-2" cx="106.88" cy="195.12" rx="14.74" ry="14.73"/><ellipse class="cls-2" cx="196.42" cy="105.83" rx="14.74" ry="14.73"/><ellipse class="cls-2" cx="126.41" cy="125.22" rx="43.68" ry="43.63"/><ellipse class="cls-2" cx="106.85" cy="454.81" rx="14.74" ry="14.73"/><ellipse class="cls-2" cx="196.24" cy="544.25" rx="14.74" ry="14.73"/><ellipse class="cls-2" cx="126.02" cy="524.75" rx="43.68" ry="43.63"/><ellipse class="cls-2" cx="452.66" cy="544.04" rx="14.74" ry="14.73"/><ellipse class="cls-2" cx="542.2" cy="454.74" rx="14.74" ry="14.73"/><ellipse class="cls-2" cx="522.34" cy="524.64" rx="43.68" ry="43.63"/><path class="cls-1" d="M498.72,132.41A43.69,43.69,0,1,0,458,85.87v0A43.72,43.72,0,0,0,498.72,132.41Z" transform="translate(-175 -45.12)"/><ellipse class="cls-1" cx="389.54" cy="80.04" rx="14.74" ry="14.73"/><ellipse class="cls-1" cx="263.03" cy="78.72" rx="14.74" ry="14.73"/><ellipse class="cls-1" cx="389.54" cy="80.04" rx="14.74" ry="14.73"/><ellipse class="cls-1" cx="326.68" cy="43.71" rx="43.68" ry="43.63"/><ellipse class="cls-1" cx="78.74" cy="384.44" rx="14.74" ry="14.73"/><ellipse class="cls-1" cx="80.07" cy="258.06" rx="14.74" ry="14.73"/><ellipse class="cls-1" cx="43.68" cy="320.87" rx="43.68" ry="43.63"/><ellipse class="cls-1" cx="260.75" cy="569.85" rx="14.74" ry="14.73"/><ellipse class="cls-1" cx="387.26" cy="571.18" rx="14.74" ry="14.73"/><ellipse class="cls-1" cx="323.46" cy="606.37" rx="43.68" ry="43.63"/><ellipse class="cls-1" cx="570.17" cy="391.65" rx="14.74" ry="14.73"/><ellipse class="cls-1" cx="571.49" cy="265.26" rx="14.74" ry="14.73"/><ellipse class="cls-1" cx="606.32" cy="329.06" rx="43.68" ry="43.63"/></svg>