<svg id="Layer_1" data-name="Layer 1" xmlns="http://www.w3.org/2000/svg" viewBox="0 0 661.85 900.16"><defs><style>.cls-1{fill:#007bc4;}.cls-2{fill:#1cbdad;}</style></defs><path class="cls-1" d="M219.7,840.47V752.08H229a30.6,30.6,0,0,1,1.55,61.16l23.74,27.23h-5.94l-24.25-27.62v27.62Zm4.39-31.62H229a26.19,26.19,0,0,0,0-52.38h-4.9Z" transform="translate(-177.17 -46.85)"/><path class="cls-1" d="M269.89,813.24a29.16,29.16,0,1,1,29.16,29A29.21,29.21,0,0,1,269.89,813.24Zm53.93-.13a24.77,24.77,0,1,0-24.77,24.78A24.83,24.83,0,0,0,323.82,813.11Z" transform="translate(-177.17 -46.85)"/><path class="cls-1" d="M345,824.21V785.89h4.39v38.32c0,9,5.67,13.68,12.25,13.68a15.53,15.53,0,0,0,13.94-8.39V785.89H380v54.58h-4.39v-4.39c-2.84,3.61-7.61,6.19-13.94,6.19C352.33,842.27,345,835.43,345,824.21Z" transform="translate(-177.17 -46.85)"/><path class="cls-1" d="M400.59,840.47V785.89H405v4.51c2.71-3.61,7.48-6.32,13.93-6.32,9.29,0,16.65,6.84,16.65,18.06v38.33h-4.39V802.14c0-9-5.68-13.67-12.26-13.67A15.25,15.25,0,0,0,405,797v43.49Z" transform="translate(-177.17 -46.85)"/><path class="cls-1" d="M452.33,813.24a29.21,29.21,0,0,1,29.16-29.16A29.51,29.51,0,0,1,498.91,790V752.08h4.38v88.39h-4.38v-4a29.14,29.14,0,0,1-46.58-23.23Zm46.58,17.42v-35a26,26,0,0,0-17.42-7.22,24.71,24.71,0,1,0,0,49.42A25.38,25.38,0,0,0,498.91,830.66Z" transform="translate(-177.17 -46.85)"/><path class="cls-2" d="M530.9,840.47V769.63H516.19V752.08h47.1v17.55H548.45v70.84Z" transform="translate(-177.17 -46.85)"/><path class="cls-2" d="M559.42,810.27c0-17.67,14.32-32,29.16-32,6.84,0,11.61,2.07,15.09,5.68v-3.87h16.52v60.39H603.67v-3.75c-3.48,3.49-8.25,5.55-15.09,5.55C573.74,842.27,559.42,828,559.42,810.27Zm44.25,9.42V800.85a15.19,15.19,0,0,0-12.25-6.06,15.49,15.49,0,1,0,0,31A15.2,15.2,0,0,0,603.67,819.69Z" transform="translate(-177.17 -46.85)"/><path class="cls-2" d="M649.6,836.72v3.75H633.09V752.08H649.6V784c3.49-3.61,8.26-5.68,15.1-5.68,14.84,0,29.16,14.33,29.16,32s-14.32,32-29.16,32C657.86,842.27,653.09,840.21,649.6,836.72Zm27.75-26.45a15.62,15.62,0,0,0-15.49-15.48,15.23,15.23,0,0,0-12.26,6.06v18.84a15.24,15.24,0,0,0,12.26,6.07A15.62,15.62,0,0,0,677.35,810.27Z" transform="translate(-177.17 -46.85)"/><path class="cls-2" d="M704.18,840.47V752.08h16.51v88.39Z" transform="translate(-177.17 -46.85)"/><path class="cls-2" d="M731,810.27a32,32,0,1,1,64,0,34.65,34.65,0,0,1-.51,6.33H748.82a15.56,15.56,0,0,0,14.2,9.16,14.88,14.88,0,0,0,10.83-4.52L785.6,833A32,32,0,0,1,731,810.27ZM777.08,804a15.48,15.48,0,0,0-28.26,0Z" transform="translate(-177.17 -46.85)"/><path class="cls-1" d="M336.3,931.5V876.64l17,23.07,17-23.07V931.5h-2.65V884.67l-14.34,19.48L339,884.67V931.5Z" transform="translate(-177.17 -46.85)"/><path class="cls-1" d="M384.3,921.68V898.54H387v23.14c0,5.46,3.43,8.26,7.4,8.26a9.37,9.37,0,0,0,8.42-5.06V898.54h2.65v33h-2.65v-2.65a10.37,10.37,0,0,1-8.42,3.74C388.74,932.59,384.3,928.46,384.3,921.68Z" transform="translate(-177.17 -46.85)"/><path class="cls-1" d="M417.89,931.5V878.12h2.65V931.5Z" transform="translate(-177.17 -46.85)"/><path class="cls-1" d="M435.11,931.5V901.19H429.5v-2.65h5.61V886.23l2.65-1.56v13.87h6.39v2.65h-6.39V931.5Z" transform="translate(-177.17 -46.85)"/><path class="cls-1" d="M452.33,891.21v-6.7H455v6.7Zm0,40.29v-33H455v33Z" transform="translate(-177.17 -46.85)"/><path class="cls-1" d="M462.77,916.23v-2.42h20.65v2.42Z" transform="translate(-177.17 -46.85)"/><path class="cls-1" d="M490.82,932v-2.8a7.27,7.27,0,0,0,2,.31c7,0,11.53-5.15,11.53-12,0-5.38-2.8-8.81-5.69-12.39-3-3.67-6.15-7.49-6.15-13.8,0-8.18,5.76-13.87,13.63-13.87h.39v2.73h-.39a10.65,10.65,0,0,0-10.91,11.06c0,5.38,2.81,8.89,5.69,12.47,3,3.74,6.16,7.72,6.16,14.11,0,8.49-5.77,14.49-14.26,14.49A6,6,0,0,1,490.82,932Z" transform="translate(-177.17 -46.85)"/><path class="cls-1" d="M518.41,891.21v-6.7h2.65v6.7Zm0,40.29v-33h2.65v33Z" transform="translate(-177.17 -46.85)"/><path class="cls-1" d="M545,946.85v-2.64a13.72,13.72,0,0,0,2.18.15c6.94,0,12.16-4.91,12.16-12.62v-2.65a17.58,17.58,0,1,1-10.52-31.64A17.86,17.86,0,0,1,559.32,901v-2.49H562v33.2c0,9.89-6.7,15.27-14.81,15.27A11.11,11.11,0,0,1,545,946.85Zm14.34-21.27V904.46a15.71,15.71,0,0,0-10.52-4.36,14.92,14.92,0,1,0,0,29.84A15.34,15.34,0,0,0,559.32,925.58Z" transform="translate(-177.17 -46.85)"/><path class="cls-1" d="M593.45,915.06a17.64,17.64,0,0,1,17.61-17.61A17.86,17.86,0,0,1,621.58,901V878.12h2.65V931.5h-2.65v-2.41a17.6,17.6,0,0,1-28.13-14Zm28.13,10.52V904.46a15.71,15.71,0,0,0-10.52-4.36,14.92,14.92,0,1,0,0,29.84A15.34,15.34,0,0,0,621.58,925.58Z" transform="translate(-177.17 -46.85)"/><path class="cls-1" d="M631.63,931.5l21.12-55,21.12,55h-3l-3.74-9.89H638.41l-3.74,9.89Zm7.56-12.08h27.12l-13.56-35.76Z" transform="translate(-177.17 -46.85)"/><path class="cls-1" d="M681.27,945.92V898.54h2.65V901a17.14,17.14,0,0,1,10.52-3.58,17.57,17.57,0,1,1,0,35.14A17.14,17.14,0,0,1,683.92,929v16.91ZM709.4,915a15,15,0,0,0-15-14.88,15.3,15.3,0,0,0-10.52,4.36v21.12a15.67,15.67,0,0,0,10.52,4.36A15.06,15.06,0,0,0,709.4,915Z" transform="translate(-177.17 -46.85)"/><path class="cls-1" d="M722.18,945.92V898.54h2.65V901a17.14,17.14,0,0,1,10.52-3.58,17.57,17.57,0,1,1,0,35.14A17.14,17.14,0,0,1,724.83,929v16.91ZM750.31,915a15,15,0,0,0-15-14.88,15.3,15.3,0,0,0-10.52,4.36v21.12a15.67,15.67,0,0,0,10.52,4.36A15.06,15.06,0,0,0,750.31,915Z" transform="translate(-177.17 -46.85)"/><path id="A_-_Lt_Blu" data-name="A - Lt Blu" class="cls-1" d="M296.85,913.74l6.91-5.38h-9.49L280,876.3h-7.71l-14.16,32.06H249l6.6,5.38L247.8,931.3h9.05L264.06,914h24.32l7.21,17.35h9.05Zm-20.72-29.3L282,898.62H270.4ZM265.8,908.57l2.1-5h16.57l2,5Z" transform="translate(-177.17 -46.85)"/><circle class="cls-1" cx="333.29" cy="329.72" r="218.45"/><polygon class="cls-2" points="449.64 358.19 529.72 329.72 448.15 300.71 487.64 264.59 435.7 267.58 472.19 190.83 394 227.99 396.38 174.52 361.77 213.37 333.29 133.3 304.29 214.86 268.16 175.37 271.16 227.31 194.4 190.83 231.56 269.01 178.09 266.63 216.94 301.24 136.87 329.72 218.43 358.72 178.94 394.85 230.89 391.85 194.4 468.61 272.58 431.45 270.21 484.92 304.82 446.07 333.29 526.14 362.3 444.58 398.43 484.07 395.43 432.13 472.19 468.61 435.02 390.43 488.49 392.81 449.64 358.19"/><circle class="cls-2" cx="375.43" cy="601.31" r="14.74" transform="translate(-492.4 394.73) rotate(-45)"/><circle class="cls-2" cx="286.54" cy="511.27" r="14.74" transform="translate(-454.77 305.51) rotate(-45)"/><circle class="cls-2" cx="128.39" cy="534.51" r="43.76"/><circle class="cls-2" cx="284.56" cy="245.11" r="14.74" transform="translate(-267.14 226.15) rotate(-45)"/><circle class="cls-2" cx="374.6" cy="156.23" r="14.74" transform="translate(-177.92 263.79) rotate(-45)"/><circle class="cls-2" cx="127.35" cy="128.39" r="43.76"/><circle class="cls-2" cx="640.76" cy="154.25" r="14.74" transform="translate(-98.56 451.41) rotate(-45)"/><circle class="cls-2" cx="729.65" cy="244.29" r="14.74" transform="translate(-136.2 540.64) rotate(-45)"/><circle class="cls-2" cx="533.46" cy="127.35" r="43.76"/><circle class="cls-2" cx="731.63" cy="510.45" r="14.74" transform="translate(-323.82 619.99) rotate(-45)"/><circle class="cls-2" cx="641.59" cy="599.33" r="14.74" transform="translate(-413.04 582.36) rotate(-45)"/><circle class="cls-2" cx="534.51" cy="533.46" r="43.76"/><circle class="cls-1" cx="256.22" cy="442.03" r="14.74" transform="translate(-178.94 -45.82) rotate(-0.23)"/><circle class="cls-1" cx="257.04" cy="315.51" r="14.74" transform="matrix(1, 0, 0, 1, -178.43, -45.82)"/><circle class="cls-1" cx="43.76" cy="331.67" r="43.76"/><circle class="cls-1" cx="266.68" cy="79.06" r="14.74"/><circle class="cls-1" cx="393.2" cy="79.87" r="14.74"/><circle class="cls-1" cx="330.19" cy="43.76" r="43.76"/><circle class="cls-1" cx="759.97" cy="313.53" r="14.74" transform="translate(-178.42 -43.81) rotate(-0.23)"/><circle class="cls-1" cx="759.15" cy="440.05" r="14.74" transform="translate(-178.92 -43.81) rotate(-0.23)"/><circle class="cls-1" cx="618.09" cy="330.19" r="43.76"/><circle class="cls-1" cx="572.35" cy="629.65" r="14.74" transform="translate(-179.68 -44.56) rotate(-0.23)"/><circle class="cls-1" cx="445.83" cy="628.83" r="14.74" transform="translate(-179.68 -45.06) rotate(-0.23)"/><circle class="cls-1" cx="331.67" cy="618.09" r="43.76"/></svg>