<svg version="1.1"
     width="1000" height="1000"
     xmlns="http://www.w3.org/2000/svg">
  <defs>
    <style type="text/css"><![CDATA[
       .fill-sky {
         fill: #0284C7;
       }
       .fill-teal {
         fill: #2DD4BF;
       }
    ]]></style>
  </defs>
  <circle class="fill-sky" cx="500" cy="500" r="350" />
  <symbol id='lg-star'>
    <polygon points="500,200 570,430 800,500 570,570 500,800 430,570 200,500 430,430" />
  </symbol>
  <symbol id='sm-star'>
    <polygon points="500,275 550,450 725,500, 550,550 500,725 450,550 275,500 450,450" />
  </symbol>
  <g class="fill-teal">
    <use href="#lg-star" />
    <use href="#lg-star" transform="rotate(45 500 500)" />
    <use href="#sm-star" transform="rotate(22.5 500 500)" />
    <use href="#sm-star" transform="rotate(67.5 500 500)" />
  </g>
  <symbol id="person">
    <circle cx="500" cy="60" r="60" />
    <circle cx="500" cy="105" r="15" transform="rotate(15 500 500)" />
    <circle cx="500" cy="105" r="15" transform="rotate(345 500 500)" />
  </symbol>
  <use href="#person" class="fill-sky" />
  <use href="#person" class="fill-teal" transform="rotate(45 500 500)" />
  <use href="#person" class="fill-sky" transform="rotate(90 500 500)" />
  <use href="#person" class="fill-teal" transform="rotate(135 500 500)" />
  <use href="#person" class="fill-sky" transform="rotate(180 500 500)" />
  <use href="#person" class="fill-teal" transform="rotate(225 500 500)" />
  <use href="#person" class="fill-sky" transform="rotate(270 500 500)" />
  <use href="#person" class="fill-teal" transform="rotate(315 500 500)" />
</svg>
