<svg id="Layer_1" data-name="Layer 1" xmlns="http://www.w3.org/2000/svg" viewBox="0 0 1000 1000"><defs><style>.cls-1{fill:#007bc4;}.cls-2{fill:#1cbdad;}</style></defs><ellipse class="cls-1" cx="501.57" cy="499.37" rx="332.71" ry="332.37"/><polygon class="cls-2" points="290.03 288.05 444.33 361.32 501.57 200.51 558.82 361.32 713.12 288.05 639.77 442.19 800.74 499.37 639.77 556.55 713.12 710.69 558.82 637.42 501.57 798.23 444.33 637.42 290.03 710.69 363.38 556.55 202.41 499.37 363.38 442.19 290.03 288.05"/><polygon class="cls-2" points="402.37 264.52 500.73 371.92 597.66 263.24 591.19 408.66 736.66 400.27 629.15 498.53 737.95 595.36 592.38 588.89 600.78 734.22 502.42 626.82 405.49 735.51 411.96 590.08 266.48 598.47 373.99 500.21 265.19 403.38 410.76 409.85 402.37 264.52"/><path class="cls-2" d="M751.42,240.09a66.58,66.58,0,1,0,5.43-94l0,0A66.49,66.49,0,0,0,751.42,240.09Z"/><ellipse class="cls-2" cx="830.72" cy="302.35" rx="22.46" ry="22.43"/><ellipse class="cls-2" cx="694.58" cy="166.12" rx="22.46" ry="22.43"/><ellipse class="cls-2" cx="830.72" cy="302.35" rx="22.46" ry="22.43"/><ellipse class="cls-2" cx="801.16" cy="195.88" rx="66.52" ry="66.46"/><ellipse class="cls-2" cx="167.79" cy="302.19" rx="22.46" ry="22.43"/><ellipse class="cls-2" cx="304.17" cy="166.18" rx="22.46" ry="22.43"/><ellipse class="cls-2" cx="197.53" cy="195.71" rx="66.52" ry="66.46"/><ellipse class="cls-2" cx="167.74" cy="697.71" rx="22.46" ry="22.43"/><ellipse class="cls-2" cx="303.88" cy="833.94" rx="22.46" ry="22.43"/><ellipse class="cls-2" cx="196.94" cy="804.23" rx="66.52" ry="66.46"/><ellipse class="cls-2" cx="694.43" cy="833.61" rx="22.46" ry="22.43"/><ellipse class="cls-2" cx="830.81" cy="697.6" rx="22.46" ry="22.43"/><ellipse class="cls-2" cx="800.57" cy="804.07" rx="66.52" ry="66.46"/><path class="cls-1" d="M498.05,137.94a66.55,66.55,0,1,0-62-70.87v.05A66.56,66.56,0,0,0,498.05,137.94Z"/><ellipse class="cls-1" cx="598.31" cy="126.91" rx="22.46" ry="22.43"/><ellipse class="cls-1" cx="405.62" cy="124.89" rx="22.46" ry="22.43"/><ellipse class="cls-1" cx="598.31" cy="126.91" rx="22.46" ry="22.43"/><ellipse class="cls-1" cx="502.56" cy="71.58" rx="66.52" ry="66.46"/><ellipse class="cls-1" cx="124.93" cy="590.53" rx="22.46" ry="22.43"/><ellipse class="cls-1" cx="126.95" cy="398.04" rx="22.46" ry="22.43"/><ellipse class="cls-1" cx="71.53" cy="493.71" rx="66.52" ry="66.46"/><ellipse class="cls-1" cx="402.14" cy="872.93" rx="22.46" ry="22.43"/><ellipse class="cls-1" cx="594.83" cy="874.95" rx="22.46" ry="22.43"/><ellipse class="cls-1" cx="497.66" cy="928.54" rx="66.52" ry="66.46"/><ellipse class="cls-1" cx="873.41" cy="601.51" rx="22.46" ry="22.43"/><ellipse class="cls-1" cx="875.43" cy="409.02" rx="22.46" ry="22.43"/><ellipse class="cls-1" cx="928.47" cy="506.18" rx="66.52" ry="66.46"/></svg>