<svg id="Layer_1" data-name="Layer 1" xmlns="http://www.w3.org/2000/svg" viewBox="0 0 641.36 906.1"><defs><style>.cls-1{fill:#007bc4;}.cls-2{fill:#1cbdad;}</style></defs><circle class="cls-1" cx="322.25" cy="321.53" r="217.71"/><polygon class="cls-2" points="183.83 183.11 284.79 231.1 322.25 125.77 359.7 231.1 460.67 183.11 412.68 284.07 518 321.53 412.68 358.99 460.67 459.95 359.7 411.96 322.25 517.28 284.79 411.96 183.83 459.95 231.82 358.99 126.49 321.53 231.82 284.07 183.83 183.11"/><polygon class="cls-2" points="257.34 167.7 321.7 238.05 385.12 166.86 380.89 262.11 476.08 256.62 405.73 320.98 476.92 384.4 381.67 380.17 387.16 475.36 322.8 405.01 259.38 476.2 263.61 380.95 168.42 386.44 238.77 322.08 167.58 258.65 262.83 262.89 257.34 167.7"/><path class="cls-1" d="M231.14,840.47V752.08h9.29A30.6,30.6,0,0,1,242,813.24l23.74,27.23h-5.93l-24.26-27.62v27.62Zm4.39-31.62h4.9a26.19,26.19,0,0,0,0-52.38h-4.9Z" transform="translate(-181.32 -46.91)"/><path class="cls-1" d="M281.33,813.24a29.16,29.16,0,1,1,29.16,29A29.21,29.21,0,0,1,281.33,813.24Zm53.94-.13a24.78,24.78,0,1,0-24.78,24.78A24.84,24.84,0,0,0,335.27,813.11Z" transform="translate(-181.32 -46.91)"/><path class="cls-1" d="M356.42,824.21V785.89h4.39v38.32c0,9,5.68,13.68,12.26,13.68A15.52,15.52,0,0,0,387,829.5V785.89h4.39v54.58H387v-4.39c-2.84,3.61-7.61,6.19-13.93,6.19C363.78,842.27,356.42,835.43,356.42,824.21Z" transform="translate(-181.32 -46.91)"/><path class="cls-1" d="M412,840.47V785.89h4.39v4.51c2.71-3.61,7.48-6.32,13.93-6.32,9.29,0,16.65,6.84,16.65,18.06v38.33h-4.39V802.14c0-9-5.68-13.67-12.26-13.67A15.25,15.25,0,0,0,416.42,797v43.49Z" transform="translate(-181.32 -46.91)"/><path class="cls-1" d="M463.77,813.24a29.21,29.21,0,0,1,29.16-29.16A29.51,29.51,0,0,1,510.35,790V752.08h4.38v88.39h-4.38v-4a29.14,29.14,0,0,1-46.58-23.23Zm46.58,17.42v-35a26,26,0,0,0-17.42-7.22,24.71,24.71,0,1,0,0,49.42A25.38,25.38,0,0,0,510.35,830.66Z" transform="translate(-181.32 -46.91)"/><path class="cls-2" d="M542.34,840.47V769.63H527.63V752.08h47.1v17.55H559.89v70.84Z" transform="translate(-181.32 -46.91)"/><path class="cls-2" d="M570.86,810.27c0-17.67,14.32-32,29.16-32,6.84,0,11.61,2.07,15.1,5.68v-3.87h16.51v60.39H615.12v-3.75c-3.49,3.49-8.26,5.55-15.1,5.55C585.18,842.27,570.86,828,570.86,810.27Zm44.26,9.42V800.85a15.23,15.23,0,0,0-12.26-6.06,15.49,15.49,0,1,0,0,31A15.24,15.24,0,0,0,615.12,819.69Z" transform="translate(-181.32 -46.91)"/><path class="cls-2" d="M661,836.72v3.75H644.53V752.08H661V784c3.49-3.61,8.26-5.68,15.1-5.68,14.84,0,29.16,14.33,29.16,32s-14.32,32-29.16,32C669.3,842.27,664.53,840.21,661,836.72Zm27.75-26.45a15.62,15.62,0,0,0-15.49-15.48A15.23,15.23,0,0,0,661,800.85v18.84a15.24,15.24,0,0,0,12.26,6.07A15.62,15.62,0,0,0,688.79,810.27Z" transform="translate(-181.32 -46.91)"/><path class="cls-2" d="M715.62,840.47V752.08h16.52v88.39Z" transform="translate(-181.32 -46.91)"/><path class="cls-2" d="M742.46,810.27a32,32,0,0,1,64,0,34.67,34.67,0,0,1-.52,6.33H760.26a15.56,15.56,0,0,0,14.2,9.16,14.88,14.88,0,0,0,10.83-4.52L797,833a32,32,0,0,1-54.58-22.71ZM788.52,804a15.48,15.48,0,0,0-28.26,0Z" transform="translate(-181.32 -46.91)"/><path class="cls-1" d="M328.74,937.5V882.64l17,23.07,17-23.07V937.5h-2.65V890.67l-14.34,19.48-14.34-19.48V937.5Z" transform="translate(-181.32 -46.91)"/><path class="cls-1" d="M376.74,927.68V904.54h2.65v23.14c0,5.46,3.43,8.26,7.41,8.26a9.36,9.36,0,0,0,8.41-5.06V904.54h2.65v33h-2.65v-2.65a10.37,10.37,0,0,1-8.41,3.74C381.19,938.59,376.74,934.46,376.74,927.68Z" transform="translate(-181.32 -46.91)"/><path class="cls-1" d="M410.33,937.5V884.12H413V937.5Z" transform="translate(-181.32 -46.91)"/><path class="cls-1" d="M427.55,937.5V907.19h-5.61v-2.65h5.61V892.23l2.65-1.56v13.87h6.39v2.65H430.2V937.5Z" transform="translate(-181.32 -46.91)"/><path class="cls-1" d="M444.77,897.21v-6.7h2.65v6.7Zm0,40.29v-33h2.65v33Z" transform="translate(-181.32 -46.91)"/><path class="cls-1" d="M455.21,922.23v-2.42h20.65v2.42Z" transform="translate(-181.32 -46.91)"/><path class="cls-1" d="M483.26,938v-2.8a7.27,7.27,0,0,0,2,.31c7,0,11.53-5.15,11.53-12,0-5.38-2.8-8.81-5.69-12.39-3-3.67-6.15-7.49-6.15-13.8,0-8.18,5.76-13.87,13.63-13.87H499v2.73h-.39a10.65,10.65,0,0,0-10.91,11.06c0,5.38,2.81,8.89,5.69,12.47,3,3.74,6.16,7.72,6.16,14.11,0,8.49-5.77,14.49-14.26,14.49A6,6,0,0,1,483.26,938Z" transform="translate(-181.32 -46.91)"/><path class="cls-1" d="M510.85,897.21v-6.7h2.65v6.7Zm0,40.29v-33h2.65v33Z" transform="translate(-181.32 -46.91)"/><path class="cls-1" d="M537.42,952.85v-2.64a13.72,13.72,0,0,0,2.18.15c6.94,0,12.16-4.91,12.16-12.62v-2.65a17.58,17.58,0,1,1-10.52-31.64A17.86,17.86,0,0,1,551.76,907v-2.49h2.65v33.2c0,9.89-6.7,15.27-14.81,15.27A11.11,11.11,0,0,1,537.42,952.85Zm14.34-21.27V910.46a15.71,15.71,0,0,0-10.52-4.36,14.92,14.92,0,1,0,0,29.84A15.34,15.34,0,0,0,551.76,931.58Z" transform="translate(-181.32 -46.91)"/><path class="cls-1" d="M585.89,921.06a17.64,17.64,0,0,1,17.61-17.61A17.83,17.83,0,0,1,614,907V884.12h2.65V937.5H614v-2.41a17.6,17.6,0,0,1-28.13-14ZM614,931.58V910.46a15.71,15.71,0,0,0-10.52-4.36,14.92,14.92,0,1,0,0,29.84A15.34,15.34,0,0,0,614,931.58Z" transform="translate(-181.32 -46.91)"/><path class="cls-1" d="M624.07,937.5l21.12-55,21.12,55h-3l-3.74-9.89H630.85l-3.74,9.89Zm7.56-12.08h27.12l-13.56-35.76Z" transform="translate(-181.32 -46.91)"/><path class="cls-1" d="M673.71,951.92V904.54h2.65V907a17.14,17.14,0,0,1,10.52-3.58,17.57,17.57,0,1,1,0,35.14A17.14,17.14,0,0,1,676.36,935v16.91ZM701.84,921a15,15,0,0,0-15-14.88,15.32,15.32,0,0,0-10.52,4.36v21.12a15.69,15.69,0,0,0,10.52,4.36A15.06,15.06,0,0,0,701.84,921Z" transform="translate(-181.32 -46.91)"/><path class="cls-1" d="M714.62,951.92V904.54h2.65V907a17.14,17.14,0,0,1,10.52-3.58,17.57,17.57,0,1,1,0,35.14A17.14,17.14,0,0,1,717.27,935v16.91ZM742.75,921a15,15,0,0,0-15-14.88,15.32,15.32,0,0,0-10.52,4.36v21.12a15.69,15.69,0,0,0,10.52,4.36A15.06,15.06,0,0,0,742.75,921Z" transform="translate(-181.32 -46.91)"/><path id="A_-_Lt_Blu" data-name="A - Lt Blu" class="cls-1" d="M289.29,919.74l6.91-5.38h-9.49L272.48,882.3h-7.7l-14.16,32.06h-9.19l6.6,5.38-7.79,17.56h9L256.5,920h24.33L288,937.3h9.05Zm-20.72-29.3,5.83,14.18H262.85Zm-10.33,24.13,2.1-5h16.57l2,5Z" transform="translate(-181.32 -46.91)"/><path class="cls-1" d="M268.42,371.23a43.59,43.59,0,1,0-46,41h0A43.59,43.59,0,0,0,268.42,371.23Z" transform="translate(-181.32 -46.91)"/><circle class="cls-1" cx="79.19" cy="258.79" r="14.69"/><circle class="cls-1" cx="79.19" cy="384.88" r="14.69"/><path class="cls-1" d="M508.12,604.58a43.59,43.59,0,1,0,41,46v0A43.59,43.59,0,0,0,508.12,604.58Z" transform="translate(-181.32 -46.91)"/><circle class="cls-1" cx="261.28" cy="565.58" r="14.69"/><circle class="cls-1" cx="387.37" cy="565.58" r="14.69"/><path class="cls-1" d="M735.58,364.09a43.59,43.59,0,1,0,46-41h0A43.59,43.59,0,0,0,735.58,364.09Z" transform="translate(-181.32 -46.91)"/><circle class="cls-1" cx="562.17" cy="382.7" r="14.69"/><circle class="cls-1" cx="562.81" cy="256.61" r="14.69"/><path class="cls-1" d="M500.31,134a43.59,43.59,0,1,0-41-46v0A43.59,43.59,0,0,0,500.31,134Z" transform="translate(-181.32 -46.91)"/><circle class="cls-1" cx="384.51" cy="79.19" r="14.69"/><circle class="cls-1" cx="258.42" cy="79.19" r="14.69"/><path class="cls-2" d="M336,539.14a43.59,43.59,0,1,0-3.56,61.54l0,0A43.58,43.58,0,0,0,336,539.14Z" transform="translate(-181.32 -46.91)"/><circle class="cls-2" cx="102.81" cy="451.44" r="14.69"/><circle class="cls-2" cx="191.89" cy="540.68" r="14.69"/><path class="cls-2" d="M671.54,535.48A43.59,43.59,0,1,0,733.08,539l0,0A43.6,43.6,0,0,0,671.54,535.48Z" transform="translate(-181.32 -46.91)"/><circle class="cls-2" cx="449.44" cy="540.46" r="14.69"/><circle class="cls-2" cx="538.68" cy="451.37" r="14.69"/><path class="cls-2" d="M667.05,197.61a43.59,43.59,0,1,0,3.56-61.54l0,0A43.6,43.6,0,0,0,667.05,197.61Z" transform="translate(-181.32 -46.91)"/><circle class="cls-2" cx="537.63" cy="191.48" r="14.69"/><circle class="cls-2" cx="448.54" cy="102.24" r="14.69"/><path class="cls-2" d="M333.61,201.09a43.59,43.59,0,1,0-61.53-3.56l0,0A43.59,43.59,0,0,0,333.61,201.09Z" transform="translate(-181.32 -46.91)"/><circle class="cls-2" cx="103.84" cy="191.37" r="14.69"/><circle class="cls-2" cx="193.08" cy="102.28" r="14.69"/></svg>