<svg id="Layer_1" data-name="Layer 1" xmlns="http://www.w3.org/2000/svg" viewBox="0 0 1000 1000"><defs><style>.cls-1{fill:#007bc4;}.cls-2{fill:#1cbdad;}</style></defs><circle class="cls-1" cx="501.57" cy="499.14" r="217.71"/><polygon class="cls-2" points="363.15 360.72 464.11 408.71 501.57 303.38 539.02 408.71 639.99 360.72 591.99 461.68 697.32 499.14 591.99 536.6 639.99 637.56 539.02 589.57 501.57 694.9 464.11 589.57 363.15 637.56 411.14 536.6 305.81 499.14 411.14 461.68 363.15 360.72"/><polygon class="cls-2" points="436.65 345.31 501.01 415.66 564.44 344.47 560.21 439.72 655.39 434.23 585.05 498.59 656.24 562.01 560.99 557.78 566.48 652.97 502.12 582.62 438.69 653.81 442.93 558.56 347.74 564.05 418.09 499.69 346.89 436.27 442.15 440.5 436.65 345.31"/><path class="cls-1" d="M266.42,501.92a43.59,43.59,0,1,0-46,41h0A43.6,43.6,0,0,0,266.42,501.92Z"/><circle class="cls-1" cx="258.51" cy="436.4" r="14.69"/><circle class="cls-1" cx="258.51" cy="562.49" r="14.69"/><path class="cls-1" d="M506.12,735.28a43.59,43.59,0,1,0,41,46v0A43.59,43.59,0,0,0,506.12,735.28Z"/><circle class="cls-1" cx="440.6" cy="743.19" r="14.69"/><circle class="cls-1" cx="566.69" cy="743.19" r="14.69"/><path class="cls-1" d="M733.58,494.79a43.59,43.59,0,1,0,46-41h0A43.59,43.59,0,0,0,733.58,494.79Z"/><circle class="cls-1" cx="741.49" cy="560.31" r="14.69"/><circle class="cls-1" cx="742.12" cy="434.22" r="14.69"/><path class="cls-1" d="M498.31,264.72a43.59,43.59,0,1,0-41-46v0A43.59,43.59,0,0,0,498.31,264.72Z"/><circle class="cls-1" cx="563.83" cy="256.81" r="14.69"/><circle class="cls-1" cx="437.74" cy="256.81" r="14.69"/><path class="cls-2" d="M334,669.84a43.59,43.59,0,1,0-3.56,61.54l0,0A43.58,43.58,0,0,0,334,669.84Z"/><circle class="cls-2" cx="282.12" cy="629.06" r="14.69"/><circle class="cls-2" cx="371.21" cy="718.29" r="14.69"/><path class="cls-2" d="M669.54,666.18a43.59,43.59,0,1,0,61.54,3.55l0,0A43.6,43.6,0,0,0,669.54,666.18Z"/><circle class="cls-2" cx="628.76" cy="718.07" r="14.69"/><circle class="cls-2" cx="718" cy="628.99" r="14.69"/><path class="cls-2" d="M665.05,328.31a43.59,43.59,0,1,0,3.56-61.54l0,0A43.6,43.6,0,0,0,665.05,328.31Z"/><circle class="cls-2" cx="716.94" cy="369.09" r="14.69"/><circle class="cls-2" cx="627.86" cy="279.86" r="14.69"/><path class="cls-2" d="M331.61,331.79a43.59,43.59,0,1,0-61.53-3.56l0,0A43.59,43.59,0,0,0,331.61,331.79Z"/><circle class="cls-2" cx="283.16" cy="368.98" r="14.69"/><circle class="cls-2" cx="372.4" cy="279.89" r="14.69"/></svg>